%TF.GenerationSoftware,KiCad,Pcbnew,9.0.6*%
%TF.CreationDate,2026-01-04T04:22:01+01:00*%
%TF.ProjectId,MTR_Reflow_Oven,4d54525f-5265-4666-9c6f-775f4f76656e,rev?*%
%TF.SameCoordinates,Original*%
%TF.FileFunction,Soldermask,Bot*%
%TF.FilePolarity,Negative*%
%FSLAX46Y46*%
G04 Gerber Fmt 4.6, Leading zero omitted, Abs format (unit mm)*
G04 Created by KiCad (PCBNEW 9.0.6) date 2026-01-04 04:22:01*
%MOMM*%
%LPD*%
G01*
G04 APERTURE LIST*
%ADD10C,4.400000*%
%ADD11C,0.650000*%
%ADD12O,2.100000X1.000000*%
%ADD13O,1.600000X1.000000*%
%ADD14O,2.300000X4.000000*%
%ADD15C,1.800000*%
%ADD16C,1.000000*%
%ADD17R,1.050000X1.500000*%
%ADD18O,1.050000X1.500000*%
%ADD19C,2.000000*%
%ADD20R,1.700000X1.700000*%
%ADD21C,1.700000*%
G04 APERTURE END LIST*
D10*
%TO.C,H6*%
X111527500Y-111043333D03*
%TD*%
D11*
%TO.C,J2*%
X171000000Y-97690000D03*
X171000000Y-91910000D03*
D12*
X170470000Y-99120000D03*
D13*
X174650000Y-99120000D03*
D12*
X170470000Y-90480000D03*
D13*
X174650000Y-90480000D03*
%TD*%
D10*
%TO.C,H9*%
X111527500Y-90986667D03*
%TD*%
D14*
%TO.C,SW3*%
X149325000Y-110075000D03*
X138325000Y-110075000D03*
D15*
X141285000Y-117575000D03*
X146365000Y-117575000D03*
X143825000Y-117575000D03*
X141285000Y-103075000D03*
X146365000Y-103075000D03*
%TD*%
D16*
%TO.C,Card1*%
X172600000Y-65950000D03*
X172600000Y-57950000D03*
%TD*%
D10*
%TO.C,H12*%
X111527500Y-82830000D03*
%TD*%
%TO.C,H7*%
X111550000Y-117075000D03*
%TD*%
%TO.C,H5*%
X111527500Y-105093333D03*
%TD*%
D17*
%TO.C,U4*%
X157830000Y-96360000D03*
D18*
X159100000Y-96360000D03*
X160370000Y-96360000D03*
%TD*%
D15*
%TO.C,SW4*%
X158947500Y-104500000D03*
X158947500Y-113500000D03*
D19*
X165197500Y-111500000D03*
X152697500Y-111500000D03*
X165197500Y-106500000D03*
X152697500Y-106500000D03*
%TD*%
D10*
%TO.C,H8*%
X111550000Y-123025000D03*
%TD*%
%TO.C,H10*%
X111527500Y-96936667D03*
%TD*%
D15*
%TO.C,SW5*%
X128947500Y-104500000D03*
X128947500Y-113500000D03*
D19*
X135197500Y-111500000D03*
X122697500Y-111500000D03*
X135197500Y-106500000D03*
X122697500Y-106500000D03*
%TD*%
D10*
%TO.C,H2*%
X174300000Y-115700000D03*
%TD*%
D20*
%TO.C,J1*%
X110750000Y-70225000D03*
D21*
X110750000Y-67685000D03*
X110750000Y-65145000D03*
X110750000Y-62605000D03*
X110750000Y-60065000D03*
X110750000Y-57525000D03*
X110750000Y-54985000D03*
X110750000Y-52445000D03*
%TD*%
D10*
%TO.C,H11*%
X111527500Y-76880000D03*
%TD*%
%TO.C,H1*%
X174300000Y-122650000D03*
%TD*%
M02*
