M48
; DRILL file {KiCad 9.0.6} date 2026-01-04T04:22:01+0100
; FORMAT={-:-/ absolute / inch / decimal}
; #@! TF.CreationDate,2026-01-04T04:22:01+01:00
; #@! TF.GenerationSoftware,Kicad,Pcbnew,9.0.6
; #@! TF.FileFunction,Plated,1,4,PTH
FMAT,2
INCH
; #@! TA.AperFunction,Plated,PTH,ComponentDrill
T1C0.0079
; #@! TA.AperFunction,Plated,PTH,ViaDrill
T2C0.0118
; #@! TA.AperFunction,Plated,PTH,ComponentDrill
T3C0.0236
; #@! TA.AperFunction,Plated,PTH,ComponentDrill
T4C0.0295
; #@! TA.AperFunction,Plated,PTH,ComponentDrill
T5C0.0394
; #@! TA.AperFunction,Plated,PTH,ComponentDrill
T6C0.0512
; #@! TA.AperFunction,Plated,PTH,ComponentDrill
T7C0.0591
; #@! TA.AperFunction,Plated,PTH,ComponentDrill
T8C0.0709
; #@! TA.AperFunction,Plated,PTH,ComponentDrill
T9C0.0866
%
G90
G05
T1
X4.7773Y-3.6426
X4.7773Y-3.6987
X4.7773Y-3.7548
X4.7781Y-3.0841
X4.7781Y-3.1402
X4.7781Y-3.1963
X4.8334Y-3.6426
X4.8334Y-3.6987
X4.8334Y-3.7548
X4.8342Y-3.0841
X4.8342Y-3.1402
X4.8342Y-3.1963
X4.8895Y-3.6426
X4.8895Y-3.6987
X4.8895Y-3.7548
X4.8903Y-3.0841
X4.8903Y-3.1402
X4.8903Y-3.1963
X5.6043Y-3.2987
X5.6043Y-3.405
X5.7106Y-3.2987
X5.7106Y-3.405
T2
X4.3391Y-3.3858
X4.3391Y-3.9764
X4.4488Y-3.3858
X4.4488Y-3.9764
X4.5359Y-4.4882
X4.5586Y-3.3858
X4.5586Y-3.9764
X4.5753Y-2.7559
X4.6191Y-2.064
X4.6457Y-4.4882
X4.6594Y-3.8917
X4.6604Y-4.2362
X4.6624Y-3.4537
X4.6662Y-4.7234
X4.6693Y-2.9567
X4.6811Y-3.5276
X4.6843Y-3.9247
X4.685Y-2.7559
X4.7323Y-2.9528
X4.751Y-4.2195
X4.7559Y-2.9803
X4.7784Y-4.7067
X4.7835Y-3.5197
X4.7948Y-2.7559
X4.8071Y-3.4961
X4.8346Y-3.3031
X4.8346Y-3.8543
X4.8661Y-2.3671
X4.8845Y-3.5541
X4.8903Y-3.8583
X4.9164Y-4.623
X4.9203Y-2.1673
X4.9326Y-3.5083
X4.9459Y-2.5738
X4.9596Y-4.0167
X4.9656Y-3.5079
X4.969Y-4.8819
X4.9724Y-2.3996
X5.0Y-3.8583
X5.0017Y-3.5085
X5.0138Y-2.9453
X5.0157Y-3.0079
X5.0197Y-2.4872
X5.0305Y-4.062
X5.0349Y-3.5084
X5.0472Y-2.8622
X5.0689Y-3.5069
X5.0787Y-4.8819
X5.0871Y-2.0472
X5.1097Y-3.8583
X5.1753Y-4.5522
X5.1772Y-4.0177
X5.1885Y-4.8819
X5.1969Y-2.0472
X5.2205Y-3.2244
X5.25Y-2.3258
X5.252Y-3.9429
X5.2549Y-3.6231
X5.2805Y-2.2234
X5.2943Y-3.6468
X5.3066Y-2.0472
X5.3071Y-3.4331
X5.3297Y-3.2441
X5.3356Y-3.6722
X5.3543Y-3.2677
X5.3622Y-3.6958
X5.3627Y-2.7165
X5.3858Y-3.3307
X5.3897Y-3.7116
X5.3898Y-3.3676
X5.3898Y-3.4709
X5.4006Y-2.8494
X5.4055Y-4.8819
X5.4072Y-4.6289
X5.4085Y-3.7392
X5.4173Y-3.4961
X5.4186Y-3.4473
X5.4301Y-3.4105
X5.439Y-2.8504
X5.4724Y-2.7165
X5.4862Y-4.0177
X5.5153Y-4.8819
X5.5202Y-2.0079
X5.5202Y-2.2047
X5.5433Y-3.9405
X5.5502Y-2.8514
X5.5669Y-3.8209
X5.5669Y-3.4252
X5.5822Y-2.7165
X5.5866Y-3.2598
X5.5876Y-3.7096
X5.5989Y-4.8031
X5.6024Y-3.1339
X5.6152Y-3.8957
X5.6181Y-3.2598
X5.6181Y-3.4439
X5.6196Y-3.6343
X5.625Y-4.8819
X5.6299Y-2.0079
X5.6299Y-2.2047
X5.6339Y-3.1339
X5.6437Y-3.9976
X5.6496Y-3.2598
X5.655Y-3.6255
X5.655Y-3.9006
X5.6634Y-2.6604
X5.6693Y-3.0709
X5.7087Y-4.8031
X5.7126Y-3.2598
X5.7283Y-3.1339
X5.7397Y-2.0079
X5.7397Y-2.2047
X5.7441Y-3.2598
X5.7549Y-3.937
X5.7564Y-2.8346
X5.7589Y-2.998
X5.7992Y-3.9646
X5.8041Y-3.564
X5.8051Y-3.7402
X5.8184Y-4.8031
X5.8351Y-3.8583
X5.8661Y-2.8346
X5.8745Y-4.8819
X5.9094Y-3.5039
X5.9139Y-2.0866
X5.9173Y-3.5591
X5.92Y-4.628
X5.9449Y-3.8583
X5.9606Y-3.6555
X5.9654Y-3.3622
X5.9759Y-2.8346
X5.9843Y-4.8819
X5.9926Y-2.2441
X6.003Y-3.4675
X6.0236Y-2.0866
X6.032Y-3.6614
X6.0546Y-3.8583
X6.0827Y-2.8868
X6.0837Y-3.185
X6.094Y-4.8819
X6.0956Y-4.623
X6.1024Y-2.2441
X6.1107Y-3.5433
X6.1122Y-3.2037
X6.1161Y-3.0138
X6.1334Y-2.0866
X6.1398Y-2.9892
X6.1398Y-3.2254
X6.1417Y-3.6614
X6.1978Y-4.0856
X6.2121Y-2.2441
X6.2205Y-3.5433
X6.2515Y-3.6614
X6.2559Y-2.4429
X6.2559Y-2.5295
X6.2844Y-2.8533
X6.373Y-3.2894
X6.3898Y-3.7096
X6.4331Y-2.9281
X6.4651Y-4.0157
X6.5039Y-4.8297
X6.5059Y-3.2283
X6.5315Y-3.8465
X6.5325Y-4.8297
X6.5354Y-3.6181
X6.5438Y-3.3858
X6.5438Y-4.2913
X6.56Y-4.8297
X6.5748Y-4.0157
X6.6225Y-1.9685
X6.6535Y-3.3858
X6.6535Y-4.2913
X6.6845Y-4.0157
X6.7323Y-1.9685
X6.7633Y-3.3858
X6.7633Y-4.2913
X6.842Y-1.9685
X6.8622Y-2.7972
T4
X6.2138Y-3.7937
X6.2638Y-3.7937
X6.3138Y-3.7937
T5
X4.3602Y-2.0648
X4.3602Y-2.1648
X4.3602Y-2.2648
X4.3602Y-2.3648
X4.3602Y-2.4648
X4.3602Y-2.5648
X4.3602Y-2.6648
X4.3602Y-2.7648
X6.7953Y-2.2815
X6.7953Y-2.5965
T6
X4.8306Y-4.1929
X4.8306Y-4.3898
X5.3227Y-4.1929
X5.3227Y-4.3898
X5.5624Y-4.0581
X5.5624Y-4.6289
X5.6624Y-4.6289
X5.7624Y-4.0581
X5.7624Y-4.6289
X6.0117Y-4.1929
X6.0117Y-4.3898
X6.5038Y-4.1929
X6.5038Y-4.3898
T8
X5.0767Y-4.1142
X5.0767Y-4.4685
X6.2578Y-4.1142
X6.2578Y-4.4685
T9
X4.3908Y-3.0268
X4.3908Y-3.261
X4.3908Y-3.5822
X4.3908Y-3.8164
X4.3908Y-4.1375
X4.3908Y-4.3718
X4.3917Y-4.6093
X4.3917Y-4.8435
X6.8622Y-4.5551
X6.8622Y-4.8287
T3
G00X6.6898Y-3.5622
M15
G01X6.7331Y-3.5622
M16
G05
G00X6.6898Y-3.9024
M15
G01X6.7331Y-3.9024
M16
G05
G00X6.8642Y-3.5622
M15
G01X6.8878Y-3.5622
M16
G05
G00X6.8642Y-3.9024
M15
G01X6.8878Y-3.9024
M16
G05
T7
G00X5.4459Y-4.3632
M15
G01X5.4459Y-4.3041
M16
G05
G00X5.8789Y-4.3632
M15
G01X5.8789Y-4.3041
M16
G05
M30
